<svg xmlns="http://www.w3.org/2000/svg" width="15" height="15" fill="none" id="work"><path fill="#000" d="M2.5 3.676a1 1 0 0 0-1 1v.664l6 2.182 6-2.182v-.664a1 1 0 0 0-1-1h-10Z"></path><path fill="#000" d="M13.5 6.404 7.74 8.499a.7.7 0 0 1-.48 0L1.5 6.404v4.506a2 2 0 0 0 2 2h8a2 2 0 0 0 2-2V6.404Z"></path><path fill="#000" fill-rule="evenodd" d="M4.856 3.188a1.7 1.7 0 0 1 1.7-1.7h1.888a1.7 1.7 0 0 1 1.7 1.7v1.297h-1.4V3.188a.3.3 0 0 0-.3-.3H6.556a.3.3 0 0 0-.3.3v1.297h-1.4V3.188Z" clip-rule="evenodd"></path></svg>
